<svg width="20px" height="20px" viewBox="0 0 20 20" version="1.1" xmlns="http://www.w3.org/2000/svg" xmlns:xlink="http://www.w3.org/1999/xlink">
    <!-- Generator: Sketch 42 (36781) - http://www.bohemiancoding.com/sketch -->
    <defs>
        <polygon id="path-1" points="19.04868 19.9204667 19.04868 0.800980392 0.000336 0.800980392 0.000336 19.9204667"></polygon>
    </defs>
    <g id="Welcome" stroke="none" stroke-width="1" fill="none" fill-rule="evenodd">
        <g id="HD-/-Long-Article-Page-/-Share-Mouse-Over" transform="translate(-1386.000000, -705.000000)">
            <g id="Page-1" transform="translate(1385.000000, 704.000000)">
                <g id="Group-3" transform="translate(10.382353, 10.819804) rotate(-90.000000) translate(-10.382353, -10.819804) translate(0.382353, 0.819804)">
                    <mask id="mask-2" fill="white">
                        <use xlink:href="#path-1"></use>
                    </mask>
                    <g id="Clip-2"></g>
                    <path d="M10.383576,12.8777412 L9.497376,12.7968 L9.497376,11.1155843 L3.856776,11.1155843 L3.856776,8.85091765 L9.497376,8.85091765 L9.497376,7.71858431 L10.390296,7.71858431 L11.753616,7.71858431 L11.753616,8.84164314 L12.773376,8.84164314 C13.696536,8.84164314 15.137976,9.28260392 15.137976,11.224349 L15.131256,12.9738588 L13.197576,12.9738588 L13.197576,11.7040941 C13.197576,11.4975255 13.095096,11.2032706 12.655776,11.2032706 L11.753616,11.2032706 L11.753616,13.0025255 L10.383576,12.8777412 Z M19.049016,10.3609765 C19.049016,5.08125098 14.784336,0.800643137 9.524256,0.800643137 C4.264176,0.800643137 0.000336,5.08125098 0.000336,10.3609765 C0.000336,15.640702 4.264176,19.9204667 9.524256,19.9204667 C14.784336,19.9204667 19.049016,15.640702 19.049016,10.3609765 L19.049016,10.3609765 Z" id="facebook" fill="#eb5842" mask="url(#mask-2)"></path>
                </g>
            </g>
        </g>
    </g>
</svg>