<svg id="front-logo" width="1195px" height="610px" viewBox="0 0 1195 610" version="1.1" xmlns="http://www.w3.org/2000/svg" xmlns:xlink="http://www.w3.org/1999/xlink">
    <!-- Generator: Sketch 42 (36781) - http://www.bohemiancoding.com/sketch -->
    <defs></defs>
    <g id="Welcome" stroke="none" stroke-width="1" fill="none" fill-rule="evenodd">
        <g id="Desktop-HD/Landingpage" transform="translate(-123.000000, -137.000000)" stroke="#EB5842" stroke-width="1.699">
            <g id="logo" transform="translate(123.000000, 137.000000)">
                <path d="M739.19211,257.725534 C751.10996,257.725534 751.13,239.222681 739.19211,239.222681 C727.275315,239.222681 727.255274,257.725534 739.19211,257.725534 Z M769.957651,257.725534 C781.8755,257.725534 781.895541,239.222681 769.957651,239.222681 C758.040855,239.222681 758.020815,257.725534 769.957651,257.725534 Z M739.19211,217.077418 C749.785168,217.077418 749.803099,200.631257 739.19211,200.631257 C728.597997,200.631257 728.58112,217.077418 739.19211,217.077418 Z M769.957651,217.077418 C780.551764,217.077418 780.56864,200.631257 769.957651,200.631257 C759.364592,200.631257 759.347716,217.077418 769.957651,217.077418 Z M739.19211,176.428248 C748.461431,176.428248 748.476198,162.039833 739.19211,162.039833 C729.922788,162.039833 729.908022,176.428248 739.19211,176.428248 Z M769.957651,176.428248 C779.228027,176.428248 779.242794,162.039833 769.957651,162.039833 C760.689384,162.039833 760.673562,176.428248 769.957651,176.428248 Z M739.19211,135.779079 C747.137695,135.779079 747.150352,123.446302 739.19211,123.446302 C731.246525,123.446302 731.233868,135.779079 739.19211,135.779079 Z M769.957651,135.779079 C777.903235,135.779079 777.915893,123.446302 769.957651,123.446302 C762.01312,123.446302 761.999408,135.779079 769.957651,135.779079 Z M739.19211,95.1330701 C745.812903,95.1330701 745.824506,84.8538244 739.19211,84.8538244 C732.570262,84.8538244 732.559714,95.1330701 739.19211,95.1330701 Z M769.957651,95.1330701 C776.578444,95.1330701 776.591101,84.8538244 769.957651,84.8538244 C763.336857,84.8538244 763.32631,95.1330701 769.957651,95.1330701 Z M853.393147,54.8579403 C865.310997,54.8579403 865.329983,36.356141 853.393147,36.356141 C841.475297,36.356141 841.456311,54.8579403 853.393147,54.8579403 Z M853.393147,24.1255666 C865.310997,24.1255666 865.329983,5.6237673 853.393147,5.6237673 C841.475297,5.6237673 841.456311,24.1255666 853.393147,24.1255666 Z M813.729564,53.8295943 C824.323677,53.8295943 824.340553,37.384487 813.729564,37.384487 C803.13756,37.384487 803.118575,53.8295943 813.729564,53.8295943 Z M813.729564,23.0972206 C824.323677,23.0972206 824.340553,6.65105969 813.729564,6.65105969 C803.13756,6.65105969 803.118575,23.0972206 813.729564,23.0972206 Z M774.067036,52.8023019 C783.337412,52.8023019 783.352179,38.4117794 774.067036,38.4117794 C764.797714,38.4117794 764.782947,52.8023019 774.067036,52.8023019 Z M774.067036,22.0688746 C783.337412,22.0688746 783.352179,7.67940571 774.067036,7.67940571 C764.797714,7.67940571 764.782947,22.0688746 774.067036,22.0688746 Z M734.403453,51.7729022 C742.347983,51.7729022 742.361695,39.4401254 734.403453,39.4401254 C726.458923,39.4401254 726.446265,51.7729022 734.403453,51.7729022 Z M734.403453,21.0405285 C742.347983,21.0405285 742.361695,8.7066981 734.403453,8.7066981 C726.458923,8.7066981 726.446265,21.0405285 734.403453,21.0405285 Z M694.740924,50.7466635 C701.362772,50.7466635 701.372265,40.4674178 694.740924,40.4674178 C688.120131,40.4674178 688.109583,50.7466635 694.740924,50.7466635 Z M694.740924,20.0132362 C701.362772,20.0132362 701.372265,9.73504412 694.740924,9.73504412 C688.120131,9.73504412 688.109583,20.0132362 694.740924,20.0132362 Z M655.077341,49.7172638 C660.373343,49.7172638 660.382836,41.4957638 655.077341,41.4957638 C649.780285,41.4957638 649.772901,49.7172638 655.077341,49.7172638 Z M655.077341,18.9848901 C660.373343,18.9848901 660.382836,10.7623365 655.077341,10.7623365 C649.780285,10.7623365 649.772901,18.9848901 655.077341,18.9848901 Z M396.985592,98.4667656 C404.931177,98.4667656 404.943834,86.1329351 396.985592,86.1329351 C389.040007,86.1329351 389.028405,98.4667656 396.985592,98.4667656 Z M517.511032,46.5416133 C522.808089,46.5416133 522.816527,38.3190597 517.511032,38.3190597 C512.213976,38.3190597 512.205537,46.5416133 517.511032,46.5416133 Z M446.908926,220.917911 C457.501984,220.917911 457.518861,204.472804 446.908926,204.472804 C436.313758,204.472804 436.297937,220.917911 446.908926,220.917911 Z M446.908926,47.5689057 C453.529719,47.5689057 453.540267,37.2907137 446.908926,37.2907137 C440.288133,37.2907137 440.275476,47.5689057 446.908926,47.5689057 Z M517.511032,221.945203 C529.427827,221.945203 529.447868,203.444458 517.511032,203.444458 C505.593182,203.444458 505.573142,221.945203 517.511032,221.945203 Z M396.985592,170.021105 C406.254914,170.021105 406.269681,155.631636 396.985592,155.631636 C387.716271,155.631636 387.701504,170.021105 396.985592,170.021105 Z M389.963986,133.729762 C397.908516,133.729762 397.922228,121.395932 389.963986,121.395932 C382.018401,121.395932 382.005744,133.729762 389.963986,133.729762 Z M482.209979,39.527577 C487.505981,39.527577 487.515474,31.3050234 482.209979,31.3050234 C476.912923,31.3050234 476.90343,39.527577 482.209979,39.527577 Z M482.209979,227.933001 C492.803037,227.933001 492.819914,211.48684 482.209979,211.48684 C471.615866,211.48684 471.59899,227.933001 482.209979,227.933001 Z M416.981928,67.5447379 C423.602721,67.5447379 423.614324,57.2654922 416.981928,57.2654922 C410.361135,57.2654922 410.349532,67.5447379 416.981928,67.5447379 Z M547.436976,201.971478 C559.354825,201.971478 559.373811,183.469679 547.436976,183.469679 C535.519126,183.469679 535.50014,201.971478 547.436976,201.971478 Z M547.436976,65.4890995 C551.410295,65.4890995 551.416624,59.3211306 547.436976,59.3211306 C543.464711,59.3211306 543.457327,65.4890995 547.436976,65.4890995 Z M416.981928,199.91584 C426.250195,199.91584 426.266016,185.526371 416.981928,185.526371 C407.712606,185.526371 407.69784,199.91584 416.981928,199.91584 Z M368.861196,86.8304403 C376.805727,86.8304403 376.819439,74.4966099 368.861196,74.4966099 C360.915612,74.4966099 360.902954,86.8304403 368.861196,86.8304403 Z M529.159916,18.4475372 C534.456972,18.4475372 534.46541,10.2249836 529.159916,10.2249836 C523.863914,10.2249836 523.854421,18.4475372 529.159916,18.4475372 Z M435.258988,249.010933 C445.853101,249.010933 445.869977,232.564772 435.258988,232.564772 C424.664875,232.564772 424.647999,249.010933 435.258988,249.010933 Z M435.258988,19.4758832 C441.880836,19.4758832 441.890329,9.19769118 435.258988,9.19769118 C428.638195,9.19769118 428.626592,19.4758832 435.258988,19.4758832 Z M529.159916,250.039279 C541.077765,250.039279 541.096751,231.538534 529.159916,231.538534 C517.242066,231.538534 517.22308,250.039279 529.159916,250.039279 Z M368.861196,181.658484 C378.129463,181.658484 378.145285,167.267961 368.861196,167.267961 C359.591875,167.267961 359.577108,181.658484 368.861196,181.658484 Z M359.52226,133.729762 C367.467845,133.729762 367.480502,121.395932 359.52226,121.395932 C351.57773,121.395932 351.565073,133.729762 359.52226,133.729762 Z M482.209979,9.11866869 C487.505981,9.11866869 487.515474,0.895061419 482.209979,0.895061419 C476.912923,0.895061419 476.90343,9.11866869 482.209979,9.11866869 Z M482.209979,258.340856 C492.803037,258.340856 492.819914,241.895748 482.209979,241.895748 C471.615866,241.895748 471.59899,258.340856 482.209979,258.340856 Z M395.45723,46.0432448 C402.078023,46.0432448 402.088571,35.7650528 395.45723,35.7650528 C388.836437,35.7650528 388.824834,46.0432448 395.45723,46.0432448 Z M568.962728,223.472971 C580.879523,223.472971 580.899564,204.972226 568.962728,204.972226 C557.044878,204.972226 557.024838,223.472971 568.962728,223.472971 Z M568.962728,43.9876064 C572.934993,43.9876064 572.941322,37.8196375 568.962728,37.8196375 C564.989408,37.8196375 564.98308,43.9876064 568.962728,43.9876064 Z M395.45723,221.417333 C404.725497,221.417333 404.740264,207.027864 395.45723,207.027864 C386.187908,207.027864 386.172087,221.417333 395.45723,221.417333 Z M1027.76672,218.862272 C1035.71231,218.862272 1035.72496,206.527388 1027.76672,206.527388 C1019.82219,206.527388 1019.80848,218.862272 1027.76672,218.862272 Z M1098.36883,44.4859749 C1101.01841,44.4859749 1101.02263,40.3746981 1098.36883,40.3746981 C1095.72135,40.3746981 1095.71608,44.4859749 1098.36883,44.4859749 Z M977.843387,96.4100735 C983.140444,96.4100735 983.149937,88.1885735 977.843387,88.1885735 C972.547386,88.1885735 972.537893,96.4100735 977.843387,96.4100735 Z M1148.29216,171.047343 C1158.88522,171.047343 1158.90315,154.602236 1148.29216,154.602236 C1137.6991,154.602236 1137.68117,171.047343 1148.29216,171.047343 Z M977.843387,167.965466 C984.464181,167.965466 984.474728,157.686221 977.843387,157.686221 C971.222594,157.686221 971.212046,167.965466 977.843387,167.965466 Z M1148.29216,101.549696 C1160.21001,101.549696 1160.23005,83.0500043 1148.29216,83.0500043 C1136.37537,83.0500043 1136.35533,101.549696 1148.29216,101.549696 Z M1027.76672,45.5132673 C1031.73899,45.5132673 1031.74637,39.3463521 1027.76672,39.3463521 C1023.79446,39.3463521 1023.78813,45.5132673 1027.76672,45.5132673 Z M1098.36883,219.889565 C1107.6392,219.889565 1107.65397,205.500096 1098.36883,205.500096 C1089.10056,205.500096 1089.08474,219.889565 1098.36883,219.889565 Z M1063.06777,225.876309 C1071.01336,225.876309 1071.02707,213.542478 1063.06777,213.542478 C1055.12324,213.542478 1055.10953,225.876309 1063.06777,225.876309 Z M1063.06777,37.4719386 C1065.71736,37.4719386 1065.72158,33.3617154 1063.06777,33.3617154 C1060.41925,33.3617154 1060.41503,37.4719386 1063.06777,37.4719386 Z M970.821781,131.674124 C976.119893,131.674124 976.128331,123.452624 970.821781,123.452624 C965.52578,123.452624 965.517341,131.674124 970.821781,131.674124 Z M1155.31377,135.786454 C1165.90788,135.786454 1165.92581,119.340293 1155.31377,119.340293 C1144.72071,119.340293 1144.70383,135.786454 1155.31377,135.786454 Z M997.840778,197.860202 C1004.46157,197.860202 1004.47212,187.58201 997.840778,187.58201 C991.219984,187.58201 991.209437,197.860202 997.840778,197.860202 Z M1128.29583,71.6549611 C1140.21368,71.6549611 1140.23372,53.1542154 1128.29583,53.1542154 C1116.37903,53.1542154 1116.35899,71.6549611 1128.29583,71.6549611 Z M997.840778,65.4890995 C1001.81304,65.4890995 1001.81937,59.3211306 997.840778,59.3211306 C993.867458,59.3211306 993.862184,65.4890995 997.840778,65.4890995 Z M1128.29583,199.91584 C1137.56515,199.91584 1137.58097,185.526371 1128.29583,185.526371 C1119.0265,185.526371 1119.01068,199.91584 1128.29583,199.91584 Z M1016.11784,246.955295 C1024.06237,246.955295 1024.07608,234.620411 1016.11784,234.620411 C1008.17331,234.620411 1008.1596,246.955295 1016.11784,246.955295 Z M1110.01877,16.3918988 C1112.66729,16.3918988 1112.67151,12.280622 1110.01877,12.280622 C1107.37024,12.280622 1107.36602,16.3918988 1110.01877,16.3918988 Z M949.720046,84.7748019 C955.017103,84.7748019 955.026596,76.5522483 949.720046,76.5522483 C944.42299,76.5522483 944.414552,84.7748019 949.720046,84.7748019 Z M1176.41656,182.684722 C1187.01067,182.684722 1187.02755,166.240669 1176.41656,166.240669 C1165.8235,166.240669 1165.80557,182.684722 1176.41656,182.684722 Z M949.720046,179.602845 C956.34084,179.602845 956.351387,169.323599 949.720046,169.323599 C943.099253,169.323599 943.088705,179.602845 949.720046,179.602845 Z M1176.41656,89.9133711 C1188.33441,89.9133711 1188.35445,71.4126254 1176.41656,71.4126254 C1164.49976,71.4126254 1164.47972,89.9133711 1176.41656,89.9133711 Z M1016.11784,17.4212984 C1020.0901,17.4212984 1020.09749,11.2533296 1016.11784,11.2533296 C1012.14557,11.2533296 1012.13924,17.4212984 1016.11784,17.4212984 Z M1110.01877,247.983641 C1119.28809,247.983641 1119.30391,233.594172 1110.01877,233.594172 C1100.74839,233.594172 1100.73362,247.983641 1110.01877,247.983641 Z M1063.06777,256.285217 C1071.01336,256.285217 1071.02707,243.950333 1063.06777,243.950333 C1055.12324,243.950333 1055.10953,256.285217 1063.06777,256.285217 Z M1063.06777,7.06303028 C1065.71736,7.06303028 1065.72158,2.95069983 1063.06777,2.95069983 C1060.41925,2.95069983 1060.41503,7.06303028 1063.06777,7.06303028 Z M940.38111,131.674124 C945.678166,131.674124 945.687659,123.452624 940.38111,123.452624 C935.085108,123.452624 935.07667,131.674124 940.38111,131.674124 Z M1185.75549,135.786454 C1196.34855,135.786454 1196.36648,119.340293 1185.75549,119.340293 C1175.16243,119.340293 1175.14345,135.786454 1185.75549,135.786454 Z M976.315025,219.361695 C982.935818,219.361695 982.946366,209.082449 976.315025,209.082449 C969.695287,209.082449 969.683684,219.361695 976.315025,219.361695 Z M1149.82158,50.153468 C1161.73943,50.153468 1161.75947,31.653776 1149.82158,31.653776 C1137.90478,31.653776 1137.88369,50.153468 1149.82158,50.153468 Z M976.315025,43.9876064 C980.288345,43.9876064 980.294673,37.8196375 976.315025,37.8196375 C972.34276,37.8196375 972.337486,43.9876064 976.315025,43.9876064 Z M1149.82158,221.417333 C1159.0909,221.417333 1159.10567,207.027864 1149.82158,207.027864 C1140.5512,207.027864 1140.53643,221.417333 1149.82158,221.417333 Z M500.213854,564.512971 C508.159439,564.512971 508.173151,552.178087 500.213854,552.178087 C492.270378,552.178087 492.256666,564.512971 500.213854,564.512971 Z M379.689469,512.588873 C384.98547,512.588873 384.994963,504.366319 379.689469,504.366319 C374.392412,504.366319 374.383974,512.588873 379.689469,512.588873 Z M429.611748,563.484625 C436.233596,563.484625 436.243089,553.206433 429.611748,553.206433 C422.990954,553.206433 422.980407,563.484625 429.611748,563.484625 Z M550.138242,515.67075 C559.407564,515.67075 559.422331,501.281281 550.138242,501.281281 C540.868921,501.281281 540.853099,515.67075 550.138242,515.67075 Z M530.140852,544.538193 C538.087492,544.538193 538.100149,532.204362 530.140852,532.204362 C522.197377,532.204362 522.183665,544.538193 530.140852,544.538193 Z M399.685804,542.483608 C404.982861,542.483608 404.991299,534.260001 399.685804,534.260001 C394.388748,534.260001 394.38031,542.483608 399.685804,542.483608 Z M464.913855,570.499715 C471.534649,570.499715 471.545196,560.221523 464.913855,560.221523 C458.294117,560.221523 458.282514,570.499715 464.913855,570.499715 Z M372.667863,476.296477 C376.640128,476.296477 376.646456,470.129561 372.667863,470.129561 C368.695598,470.129561 368.688214,476.296477 372.667863,476.296477 Z M557.158794,480.409861 C566.42917,480.409861 566.443937,466.018285 557.158794,466.018285 C547.889472,466.018285 547.874705,480.409861 557.158794,480.409861 Z M511.863792,592.607048 C519.809377,592.607048 519.822034,580.272163 511.863792,580.272163 C503.919262,580.272163 503.90555,592.607048 511.863792,592.607048 Z M351.566128,524.225198 C356.862129,524.225198 356.870567,516.002644 351.566128,516.002644 C346.268016,516.002644 346.260633,524.225198 351.566128,524.225198 Z M417.963919,591.578702 C424.584712,591.578702 424.59526,581.301563 417.963919,581.301563 C411.343126,581.301563 411.331523,591.578702 417.963919,591.578702 Z M578.261583,527.308129 C587.53196,527.308129 587.546727,512.91866 578.261583,512.91866 C568.992262,512.91866 568.977495,527.308129 578.261583,527.308129 Z M551.666605,566.039686 C559.612189,566.039686 559.624847,553.705856 551.666605,553.705856 C543.72102,553.705856 543.708363,566.039686 551.666605,566.039686 Z M378.161106,563.984048 C383.458163,563.984048 383.466601,555.761494 378.161106,555.761494 C372.86405,555.761494 372.855612,563.984048 378.161106,563.984048 Z M464.913855,600.90757 C471.534649,600.90757 471.545196,590.629378 464.913855,590.629378 C458.294117,590.629378 458.282514,600.90757 464.913855,600.90757 Z M342.227191,479.09598 C346.199456,479.09598 346.205785,472.928011 342.227191,472.928011 C338.254926,472.928011 338.247543,479.09598 342.227191,479.09598 Z M587.601575,483.207257 C596.870896,483.207257 596.885663,468.816734 587.601575,468.816734 C578.331198,468.816734 578.316431,483.207257 587.601575,483.207257 Z M372.667863,438.120184 C376.640128,438.120184 376.646456,431.953269 372.667863,431.953269 C368.695598,431.953269 368.688214,438.120184 372.667863,438.120184 Z M557.158794,443.259807 C567.752907,443.259807 567.770838,426.812593 557.158794,426.812593 C546.565735,426.812593 546.548859,443.259807 557.158794,443.259807 Z M342.227191,438.121238 C346.199456,438.121238 346.205785,431.953269 342.227191,431.953269 C338.254926,431.953269 338.247543,438.121238 342.227191,438.121238 Z M587.601575,443.259807 C598.194633,443.259807 598.212564,426.812593 587.601575,426.812593 C577.007461,426.812593 576.98953,443.259807 587.601575,443.259807 Z M372.667863,398.481449 C375.316391,398.481449 375.319555,394.369119 372.667863,394.369119 C370.019334,394.369119 370.01406,398.481449 372.667863,398.481449 Z M557.158794,404.648364 C567.752907,404.648364 567.770838,388.202203 557.158794,388.202203 C546.565735,388.202203 546.548859,404.648364 557.158794,404.648364 Z M342.227191,398.482503 C344.874665,398.482503 344.878884,394.370172 342.227191,394.370172 C339.578663,394.370172 339.574444,398.482503 342.227191,398.482503 Z M587.601575,404.648364 C598.194633,404.648364 598.212564,388.202203 587.601575,388.202203 C577.007461,388.202203 576.98953,404.648364 587.601575,404.648364 Z M372.667863,363.970747 C375.316391,363.970747 375.319555,359.860523 372.667863,359.860523 C370.019334,359.860523 370.01406,363.970747 372.667863,363.970747 Z M557.158794,371.166008 C569.077698,371.166008 569.096684,352.664208 557.158794,352.664208 C545.241999,352.664208 545.223013,371.166008 557.158794,371.166008 Z M342.227191,363.970747 C344.874665,363.970747 344.878884,359.860523 342.227191,359.860523 C339.578663,359.860523 339.574444,363.970747 342.227191,363.970747 Z M587.601575,371.166008 C599.51837,371.166008 599.53841,352.664208 587.601575,352.664208 C575.683725,352.664208 575.663684,371.166008 587.601575,371.166008 Z M785.169548,385.572335 C790.466605,385.572335 790.475043,377.348728 785.169548,377.348728 C779.872492,377.348728 779.864053,385.572335 785.169548,385.572335 Z M824.01041,462.854224 C831.955995,462.854224 831.968652,450.520394 824.01041,450.520394 C816.06588,450.520394 816.052168,462.854224 824.01041,462.854224 Z M745.430022,421.449599 C752.050815,421.449599 752.061363,411.170354 745.430022,411.170354 C738.809228,411.170354 738.797626,421.449599 745.430022,421.449599 Z M779.515979,351.156459 C784.813036,351.156459 784.821474,342.932852 779.515979,342.932852 C774.219977,342.932852 774.210484,351.156459 779.515979,351.156459 Z M821.043341,384.542935 C825.015606,384.542935 825.02299,378.377074 821.043341,378.377074 C817.071076,378.377074 817.063693,384.542935 821.043341,384.542935 Z M821.843912,350.128113 C825.816177,350.128113 825.822506,343.962252 821.843912,343.962252 C817.871647,343.962252 817.864264,350.128113 821.843912,350.128113 Z M847.297629,399.254816 C851.269894,399.254816 851.275168,393.088954 847.297629,393.088954 C843.32431,393.088954 843.317981,399.254816 847.297629,399.254816 Z M867.33932,371.252406 C871.311585,371.252406 871.317914,365.08549 867.33932,365.08549 C863.366,365.08549 863.360727,371.252406 867.33932,371.252406 Z M814.380357,495.908805 C822.324887,495.908805 822.337545,483.573921 814.380357,483.573921 C806.434772,483.573921 806.422115,495.908805 814.380357,495.908805 Z M754.64344,448.51533 C761.263179,448.51533 761.275836,438.236084 754.64344,438.236084 C748.021592,438.236084 748.012099,448.51533 754.64344,448.51533 Z M729.714999,472.285295 C736.335792,472.285295 736.347394,462.007103 729.714999,462.007103 C723.094205,462.007103 723.083658,472.285295 729.714999,472.285295 Z M758.074608,394.773714 C763.37061,394.773714 763.379048,386.552214 758.074608,386.552214 C752.776497,386.552214 752.768059,394.773714 758.074608,394.773714 Z M734.280045,369.8732 C739.574992,369.8732 739.584484,361.650646 734.280045,361.650646 C728.981933,361.650646 728.973495,369.8732 734.280045,369.8732 Z M710.977004,420.648838 C717.597797,420.648838 717.6094,410.370646 710.977004,410.370646 C704.357265,410.370646 704.345663,420.648838 710.977004,420.648838 Z M810.538884,573.190695 C821.132997,573.190695 821.148818,556.744534 810.538884,556.744534 C799.945825,556.744534 799.927894,573.190695 810.538884,573.190695 Z M770.652744,494.140809 C778.597274,494.140809 778.610986,481.806978 770.652744,481.806978 C762.707159,481.806978 762.694502,494.140809 770.652744,494.140809 Z M850.27841,537.312376 C859.547732,537.312376 859.562499,522.922907 850.27841,522.922907 C841.009089,522.922907 840.993267,537.312376 850.27841,537.312376 Z M816.191398,607.605516 C826.784456,607.605516 826.802387,591.161463 816.191398,591.161463 C805.597285,591.161463 805.581463,607.605516 816.191398,607.605516 Z M774.664036,574.220094 C786.581886,574.220094 786.601926,555.717241 774.664036,555.717241 C762.747241,555.717241 762.7272,574.220094 774.664036,574.220094 Z M771.01453,608.633862 C782.93238,608.633862 782.952421,590.132063 771.01453,590.132063 C759.096681,590.132063 759.077695,608.633862 771.01453,608.633862 Z M748.638633,559.671527 C760.555428,559.671527 760.575469,541.170781 748.638633,541.170781 C736.720783,541.170781 736.700742,559.671527 748.638633,559.671527 Z M728.141281,587.345203 C740.060186,587.345203 740.079172,568.844458 728.141281,568.844458 C716.224486,568.844458 716.204446,587.345203 728.141281,587.345203 Z M788.380269,464.622221 C796.325854,464.622221 796.338511,452.287337 788.380269,452.287337 C780.435739,452.287337 780.422027,464.622221 788.380269,464.622221 Z M841.064992,510.2477 C850.334313,510.2477 850.350135,495.858231 841.064992,495.858231 C831.79567,495.858231 831.780903,510.2477 841.064992,510.2477 Z M865.992378,486.477734 C875.2617,486.477734 875.277522,472.087212 865.992378,472.087212 C856.723057,472.087212 856.707235,486.477734 865.992378,486.477734 Z M837.633824,563.987208 C848.228992,563.987208 848.244813,547.542101 837.633824,547.542101 C827.040765,547.542101 827.023889,563.987208 837.633824,563.987208 Z M861.429442,588.888776 C872.0225,588.888776 872.039377,572.441561 861.429442,572.441561 C850.836384,572.441561 850.818453,588.888776 861.429442,588.888776 Z M884.730373,538.113138 C894.000749,538.113138 894.015516,523.723669 884.730373,523.723669 C875.461052,523.723669 875.446285,538.113138 884.730373,538.113138 Z M1091.2428,569.079418 C1096.5388,569.079418 1096.54724,560.855811 1091.2428,560.855811 C1085.94574,560.855811 1085.93625,569.079418 1091.2428,569.079418 Z M1052.40088,495.908805 C1060.34541,495.908805 1060.35912,483.573921 1052.40088,483.573921 C1044.4553,483.573921 1044.44264,495.908805 1052.40088,495.908805 Z M1130.98127,535.257792 C1137.60206,535.257792 1137.61261,524.978546 1130.98127,524.978546 C1124.36048,524.978546 1124.34993,535.257792 1130.98127,535.257792 Z M1096.89426,603.49424 C1102.19131,603.49424 1102.19975,595.270632 1096.89426,595.270632 C1091.59826,595.270632 1091.58876,603.49424 1096.89426,603.49424 Z M1055.36795,568.051072 C1059.34022,568.051072 1059.34654,561.88521 1055.36795,561.88521 C1051.39463,561.88521 1051.3883,568.051072 1055.36795,568.051072 Z M1054.56738,602.465894 C1058.53965,602.465894 1058.54597,596.300032 1054.56738,596.300032 C1050.59512,596.300032 1050.58879,602.465894 1054.56738,602.465894 Z M1029.11366,553.339191 C1033.08593,553.339191 1033.09437,547.17333 1029.11366,547.17333 C1025.14245,547.17333 1025.13507,553.339191 1029.11366,553.339191 Z M1009.07197,581.343708 C1013.04424,581.343708 1013.05057,575.17574 1009.07197,575.17574 C1005.09971,575.17574 1005.09232,581.343708 1009.07197,581.343708 Z M1062.03093,462.854224 C1069.97652,462.854224 1069.98918,450.520394 1062.03093,450.520394 C1054.08535,450.520394 1054.07375,462.854224 1062.03093,462.854224 Z M1121.76785,508.192061 C1128.3897,508.192061 1128.40025,497.913869 1121.76785,497.913869 C1115.14706,497.913869 1115.13651,508.192061 1121.76785,508.192061 Z M1146.69629,484.422096 C1153.31603,484.422096 1153.32763,474.14285 1146.69629,474.14285 C1140.07445,474.14285 1140.06495,484.422096 1146.69629,484.422096 Z M1118.33774,559.875932 C1123.63374,559.875932 1123.64323,551.654432 1118.33774,551.654432 C1113.04174,551.654432 1113.03224,559.875932 1118.33774,559.875932 Z M1142.13336,584.776446 C1147.42936,584.776446 1147.4378,576.553892 1142.13336,576.553892 C1136.8363,576.553892 1136.82681,584.776446 1142.13336,584.776446 Z M1165.43323,536.057499 C1172.05403,536.057499 1172.06563,525.779307 1165.43323,525.779307 C1158.8135,525.779307 1158.80189,536.057499 1165.43323,536.057499 Z M1065.87241,389.682558 C1076.46652,389.682558 1076.48234,373.238504 1065.87241,373.238504 C1055.2783,373.238504 1055.26142,389.682558 1065.87241,389.682558 Z M1105.75855,464.622221 C1113.70308,464.622221 1113.71679,452.287337 1105.75855,452.287337 C1097.81402,452.287337 1097.80031,464.622221 1105.75855,464.622221 Z M1026.13288,423.505238 C1035.40115,423.505238 1035.41803,409.115769 1026.13288,409.115769 C1016.86356,409.115769 1016.84879,423.505238 1026.13288,423.505238 Z M1060.21989,355.266683 C1070.81295,355.266683 1070.82983,338.821575 1060.21989,338.821575 C1049.62578,338.821575 1049.60785,355.266683 1060.21989,355.266683 Z M1101.74726,390.710904 C1113.66405,390.710904 1113.68304,372.209105 1101.74726,372.209105 C1089.82835,372.209105 1089.80937,390.710904 1101.74726,390.710904 Z M1105.39676,356.296082 C1117.31356,356.296082 1117.3336,337.794283 1105.39676,337.794283 C1093.47891,337.794283 1093.45887,356.296082 1105.39676,356.296082 Z M1127.77266,405.257364 C1139.69051,405.257364 1139.7095,386.756619 1127.77266,386.756619 C1115.85481,386.756619 1115.83582,405.257364 1127.77266,405.257364 Z M1148.27001,377.583688 C1160.18681,377.583688 1160.20685,359.081888 1148.27001,359.081888 C1136.35216,359.081888 1136.33212,377.583688 1148.27001,377.583688 Z M1088.03102,494.140809 C1095.97555,494.140809 1095.98927,481.806978 1088.03102,481.806978 C1080.08649,481.806978 1080.07278,494.140809 1088.03102,494.140809 Z M1035.3463,450.570968 C1044.61562,450.570968 1044.63039,436.180446 1035.3463,436.180446 C1026.07592,436.180446 1026.06116,450.570968 1035.3463,450.570968 Z M1010.41891,474.33988 C1019.68824,474.33988 1019.703,459.951465 1010.41891,459.951465 C1001.14959,459.951465 1001.13377,474.33988 1010.41891,474.33988 Z M1038.77641,398.886044 C1049.37053,398.886044 1049.3874,382.439883 1038.77641,382.439883 C1028.18336,382.439883 1028.16648,398.886044 1038.77641,398.886044 Z M1014.98185,373.98553 C1025.57491,373.98553 1025.59284,357.539369 1014.98185,357.539369 C1004.38774,357.539369 1004.37086,373.98553 1014.98185,373.98553 Z M991.680919,422.704477 C1000.95024,422.704477 1000.96501,408.315008 991.680919,408.315008 C982.411598,408.315008 982.395776,422.704477 991.680919,422.704477 Z M92.2571735,218.862272 C100.202758,218.862272 100.215416,206.527388 92.2571735,206.527388 C84.3126435,206.527388 84.2999862,218.862272 92.2571735,218.862272 Z M162.860334,44.4859749 C165.508863,44.4859749 165.513082,40.3746981 162.860334,40.3746981 C160.211806,40.3746981 160.207587,44.4859749 162.860334,44.4859749 Z M42.3348943,96.4100735 C47.6308961,96.4100735 47.6393343,88.1885735 42.3348943,88.1885735 C37.0378378,88.1885735 37.0293996,96.4100735 42.3348943,96.4100735 Z M212.782613,171.047343 C223.376727,171.047343 223.394658,154.602236 212.782613,154.602236 C202.189555,154.602236 202.171624,171.047343 212.782613,171.047343 Z M42.3348943,167.965466 C48.9546329,167.965466 48.9662353,157.686221 42.3348943,157.686221 C35.7141011,157.686221 35.7035534,167.965466 42.3348943,167.965466 Z M212.782613,101.549696 C224.700463,101.549696 224.719449,83.0500043 212.782613,83.0500043 C200.864764,83.0500043 200.844723,101.549696 212.782613,101.549696 Z M92.2571735,45.5132673 C96.2304933,45.5132673 96.2368219,39.3463521 92.2571735,39.3463521 C88.2859633,39.3463521 88.2775251,45.5132673 92.2571735,45.5132673 Z M162.860334,219.889565 C172.129656,219.889565 172.145477,205.500096 162.860334,205.500096 C153.591013,205.500096 153.575191,219.889565 162.860334,219.889565 Z M127.558227,225.876309 C135.503811,225.876309 135.517523,213.542478 127.558227,213.542478 C119.614751,213.542478 119.601039,225.876309 127.558227,225.876309 Z M127.558227,37.4719386 C130.20781,37.4719386 130.212029,33.3617154 127.558227,33.3617154 C124.910753,33.3617154 124.906534,37.4719386 127.558227,37.4719386 Z M35.3122336,131.674124 C40.6092901,131.674124 40.6177283,123.452624 35.3122336,123.452624 C30.0162318,123.452624 30.0077936,131.674124 35.3122336,131.674124 Z M219.805274,135.786454 C230.398333,135.786454 230.416264,119.340293 219.805274,119.340293 C209.212216,119.340293 209.194285,135.786454 219.805274,135.786454 Z M62.33123,197.860202 C68.9520233,197.860202 68.962571,187.58201 62.33123,187.58201 C55.7114915,187.58201 55.699889,197.860202 62.33123,197.860202 Z M192.787333,71.6549611 C204.704128,71.6549611 204.724168,53.1542154 192.787333,53.1542154 C180.868428,53.1542154 180.849442,71.6549611 192.787333,71.6549611 Z M62.33123,65.4890995 C66.3034951,65.4890995 66.3098237,59.3211306 62.33123,59.3211306 C58.358965,59.3211306 58.3526364,65.4890995 62.33123,65.4890995 Z M192.787333,199.91584 C202.056654,199.91584 202.071421,185.526371 192.787333,185.526371 C183.516956,185.526371 183.502189,199.91584 192.787333,199.91584 Z M80.6082901,246.955295 C88.5528201,246.955295 88.5665322,234.620411 80.6082901,234.620411 C72.6637601,234.620411 72.6500481,246.955295 80.6082901,246.955295 Z M174.509218,16.3918988 C177.157746,16.3918988 177.161965,12.280622 174.509218,12.280622 C171.860689,12.280622 171.85647,16.3918988 174.509218,16.3918988 Z M14.2104986,84.7748019 C19.5075551,84.7748019 19.5159933,76.5522483 14.2104986,76.5522483 C8.91344205,76.5522483 8.90500389,84.7748019 14.2104986,84.7748019 Z M240.908064,182.684722 C251.501122,182.684722 251.519053,166.240669 240.908064,166.240669 C230.313951,166.240669 230.29602,182.684722 240.908064,182.684722 Z M14.2104986,179.602845 C20.8312919,179.602845 20.8418396,169.323599 14.2104986,169.323599 C7.5897053,169.323599 7.5791576,179.602845 14.2104986,179.602845 Z M240.908064,89.9133711 C252.824859,89.9133711 252.8449,71.4126254 240.908064,71.4126254 C228.990214,71.4126254 228.970173,89.9133711 240.908064,89.9133711 Z M80.6082901,17.4212984 C84.5816099,17.4212984 84.5879385,11.2533296 80.6082901,11.2533296 C76.6360251,11.2533296 76.6296965,17.4212984 80.6082901,17.4212984 Z M174.509218,247.983641 C183.779594,247.983641 183.794361,233.594172 174.509218,233.594172 C165.239896,233.594172 165.225129,247.983641 174.509218,247.983641 Z M127.558227,256.285217 C135.503811,256.285217 135.517523,243.950333 127.558227,243.950333 C119.614751,243.950333 119.601039,256.285217 127.558227,256.285217 Z M127.558227,7.06303028 C130.20781,7.06303028 130.212029,2.95069983 127.558227,2.95069983 C124.910753,2.95069983 124.906534,7.06303028 127.558227,7.06303028 Z M4.87261696,131.674124 C10.1686187,131.674124 10.1781117,123.452624 4.87261696,123.452624 C-0.425494346,123.452624 -0.432877739,131.674124 4.87261696,131.674124 Z M250.245946,135.786454 C260.839004,135.786454 260.856935,119.340293 250.245946,119.340293 C239.652887,119.340293 239.634956,135.786454 250.245946,135.786454 Z M40.8054774,219.361695 C47.4273254,219.361695 47.4378731,209.082449 40.8054774,209.082449 C34.1857389,209.082449 34.1751912,219.361695 40.8054774,219.361695 Z M214.31203,50.153468 C226.22988,50.153468 226.248866,31.653776 214.31203,31.653776 C202.394181,31.653776 202.375195,50.153468 214.31203,50.153468 Z M40.8054774,43.9876064 C44.7787972,43.9876064 44.7851258,37.8196375 40.8054774,37.8196375 C36.8342671,37.8196375 36.8268837,43.9876064 40.8054774,43.9876064 Z M214.31203,221.417333 C223.581352,221.417333 223.597173,207.027864 214.31203,207.027864 C205.042709,207.027864 205.027942,221.417333 214.31203,221.417333 Z M42.3348943,605.018847 C54.2516894,605.018847 54.27173,586.518101 42.3348943,586.518101 C30.4159898,586.518101 30.3970039,605.018847 42.3348943,605.018847 Z M73.100435,605.018847 C85.01723,605.018847 85.0372707,586.518101 73.100435,586.518101 C61.1825852,586.518101 61.1625445,605.018847 73.100435,605.018847 Z" id="Stroke-1"></path>
                <path d="M42.3344724,564.370836 C52.9275307,564.370836 52.9454618,547.926783 42.3344724,547.926783 C31.7414141,547.926783 31.723483,564.370836 42.3344724,564.370836 Z M73.1010678,564.370836 C83.6941261,564.370836 83.7110025,547.926783 73.1010678,547.926783 C62.5069548,547.926783 62.4890237,564.370836 73.1010678,564.370836 Z M42.3344724,523.72272 C51.603794,523.72272 51.6185608,509.334305 42.3344724,509.334305 C33.0651509,509.334305 33.0503841,523.72272 42.3344724,523.72272 Z M73.1010678,523.72272 C82.3703894,523.72272 82.3851562,509.334305 73.1010678,509.334305 C63.8306915,509.334305 63.8159247,523.72272 73.1010678,523.72272 Z M42.3344724,483.073551 C50.2790025,483.073551 50.2927145,470.740774 42.3344724,470.740774 C34.3899424,470.740774 34.3762304,483.073551 42.3344724,483.073551 Z M73.1010678,483.073551 C81.0445431,483.073551 81.0582551,470.740774 73.1010678,470.740774 C65.155483,470.740774 65.141771,483.073551 73.1010678,483.073551 Z M42.3344724,442.427542 C48.9552657,442.427542 48.9658134,432.148297 42.3344724,432.148297 C35.7136792,432.148297 35.7031314,442.427542 42.3344724,442.427542 Z M73.1010678,442.427542 C79.7208064,442.427542 79.7324088,432.148297 73.1010678,432.148297 C66.4792198,432.148297 66.4686721,442.427542 73.1010678,442.427542 Z M42.3344724,401.778373 C47.6304742,401.778373 47.6399671,393.555819 42.3344724,393.555819 C37.0374159,393.555819 37.0289777,401.778373 42.3344724,401.778373 Z M73.1010678,401.778373 C78.3970696,401.778373 78.4055078,393.555819 73.1010678,393.555819 C67.8029565,393.555819 67.7955731,401.778373 73.1010678,401.778373 Z M72.9365237,364.685215 C76.9098435,364.685215 76.9161721,358.517246 72.9365237,358.517246 C68.9642587,358.517246 68.95793,364.685215 72.9365237,364.685215 Z M42.4979618,364.353321 C46.4702269,364.353321 46.4765555,358.187459 42.4979618,358.187459 C38.524642,358.187459 38.5183134,364.353321 42.4979618,364.353321 Z M151.156181,547.727646 C155.128446,547.727646 155.134775,541.561784 151.156181,541.561784 C147.183916,541.561784 147.175478,547.727646 151.156181,547.727646 Z M151.156181,374.661015 C163.072976,374.661015 163.093017,356.160269 151.156181,356.160269 C139.237276,356.160269 139.21829,374.661015 151.156181,374.661015 Z M192.650845,536.749842 C197.947902,536.749842 197.95634,528.527288 192.650845,528.527288 C187.354843,528.527288 187.346405,536.749842 192.650845,536.749842 Z M225.48901,504.976478 C232.109803,504.976478 232.120351,494.696179 225.48901,494.696179 C218.868216,494.696179 218.857669,504.976478 225.48901,504.976478 Z M237.508117,461.193803 C245.453702,461.193803 245.466359,448.859973 237.508117,448.859973 C229.563587,448.859973 229.549875,461.193803 237.508117,461.193803 Z M225.48901,417.413236 C234.758331,417.413236 234.773098,403.023767 225.48901,403.023767 C216.219688,403.023767 216.203866,417.413236 225.48901,417.413236 Z M192.650845,385.638819 C203.244958,385.638819 203.262889,369.194765 192.650845,369.194765 C182.058842,369.194765 182.039856,385.638819 192.650845,385.638819 Z M147.794628,516.540103 C151.766893,516.540103 151.773222,510.373188 147.794628,510.373188 C143.822363,510.373188 143.81498,516.540103 147.794628,516.540103 Z M147.794628,405.848558 C159.711423,405.848558 159.731464,387.347812 147.794628,387.347812 C135.876778,387.347812 135.856737,405.848558 147.794628,405.848558 Z M111.920835,547.727646 C115.8931,547.727646 115.899428,541.561784 111.920835,541.561784 C107.947515,541.561784 107.941186,547.727646 111.920835,547.727646 Z M111.920835,374.661015 C123.83763,374.661015 123.85767,356.160269 111.920835,356.160269 C100.002985,356.160269 99.9829442,374.661015 111.920835,374.661015 Z M111.920835,516.540103 C115.8931,516.540103 115.899428,510.373188 111.920835,510.373188 C107.947515,510.373188 107.941186,516.540103 111.920835,516.540103 Z M111.920835,405.848558 C123.83763,405.848558 123.85767,387.347812 111.920835,387.347812 C100.002985,387.347812 99.9829442,405.848558 111.920835,405.848558 Z M177.040245,509.739954 C182.336246,509.739954 182.345739,501.5174 177.040245,501.5174 C171.743188,501.5174 171.73475,509.739954 177.040245,509.739954 Z M198.449972,489.380599 C205.070766,489.380599 205.082368,479.101354 198.449972,479.101354 C191.829179,479.101354 191.818631,489.380599 198.449972,489.380599 Z M206.286916,461.193803 C214.231446,461.193803 214.244103,448.859973 206.286916,448.859973 C198.341331,448.859973 198.328674,461.193803 206.286916,461.193803 Z M198.449972,433.008061 C207.719294,433.008061 207.735116,418.618592 198.449972,418.618592 C189.180651,418.618592 189.165884,433.008061 198.449972,433.008061 Z M177.040245,412.648707 C187.633303,412.648707 187.651234,396.204653 177.040245,396.204653 C166.447186,396.204653 166.429255,412.648707 177.040245,412.648707 Z" id="Stroke-3"></path>
            </g>
        </g>
    </g>
</svg>