<svg id="header_logo" width="273px" height="31px" viewBox="0 0 273 31" version="1.1" xmlns="http://www.w3.org/2000/svg" xmlns:xlink="http://www.w3.org/1999/xlink">
    <!-- Generator: Sketch 42 (36781) - http://www.bohemiancoding.com/sketch -->
    <title>header_logo</title>
    <g id="Welcome" stroke="none" stroke-width="1" fill="none" fill-rule="evenodd">
        <g id="Desktop-HD/JohanPortfolioMO1" transform="translate(-584.000000, -49.000000)" fill="#EB5842">
            <g  transform="translate(584.000000, 49.000000)">
                <path d="M44.1927,11.8754 C45.0807,11.8754 45.0807,10.4974 44.1927,10.4974 C43.3047,10.4974 43.3047,11.8754 44.1927,11.8754" id="Fill-1"></path>
                <path d="M57.6398,6.0758 C58.2318,6.0758 58.2318,5.1578 57.6398,5.1578 C57.0478,5.1578 57.0478,6.0758 57.6398,6.0758" id="Fill-3"></path>
                <path d="M49.7626,25.5521 C50.9476,25.5521 50.9476,23.7151 49.7626,23.7151 C48.5776,23.7151 48.5776,25.5521 49.7626,25.5521" id="Fill-5"></path>
                <path d="M49.7626,6.1906 C50.5026,6.1906 50.5026,5.0426 49.7626,5.0426 C49.0226,5.0426 49.0226,6.1906 49.7626,6.1906" id="Fill-7"></path>
                <path d="M57.6398,25.6669 C58.9728,25.6669 58.9728,23.6009 57.6398,23.6009 C56.3068,23.6009 56.3068,25.6669 57.6398,25.6669" id="Fill-9"></path>
                <path d="M44.1927,19.8673 C45.2287,19.8673 45.2287,18.2603 44.1927,18.2603 C43.1567,18.2603 43.1567,19.8673 44.1927,19.8673" id="Fill-11"></path>
                <path d="M43.4092,15.814 C44.2972,15.814 44.2972,14.436 43.4092,14.436 C42.5212,14.436 42.5212,15.814 43.4092,15.814" id="Fill-13"></path>
                <path d="M53.7012,5.2924 C54.2932,5.2924 54.2932,4.3744 53.7012,4.3744 C53.1092,4.3744 53.1092,5.2924 53.7012,5.2924" id="Fill-15"></path>
                <path d="M53.7012,26.3356 C54.8862,26.3356 54.8862,24.4986 53.7012,24.4986 C52.5162,24.4986 52.5162,26.3356 53.7012,26.3356" id="Fill-17"></path>
                <path d="M46.4237,8.4216 C47.1637,8.4216 47.1637,7.2736 46.4237,7.2736 C45.6837,7.2736 45.6837,8.4216 46.4237,8.4216" id="Fill-19"></path>
                <path d="M60.9787,23.4359 C62.3117,23.4359 62.3117,21.3699 60.9787,21.3699 C59.6457,21.3699 59.6457,23.4359 60.9787,23.4359" id="Fill-21"></path>
                <path d="M60.9787,8.192 C61.4227,8.192 61.4227,7.503 60.9787,7.503 C60.5347,7.503 60.5347,8.192 60.9787,8.192" id="Fill-23"></path>
                <path d="M46.4237,23.2063 C47.4597,23.2063 47.4597,21.5993 46.4237,21.5993 C45.3877,21.5993 45.3877,23.2063 46.4237,23.2063" id="Fill-25"></path>
                <path d="M41.0548,10.5757 C41.9428,10.5757 41.9428,9.1977 41.0548,9.1977 C40.1668,9.1977 40.1668,10.5757 41.0548,10.5757" id="Fill-27"></path>
                <path d="M58.9395,2.938 C59.5315,2.938 59.5315,2.02 58.9395,2.02 C58.3475,2.02 58.3475,2.938 58.9395,2.938" id="Fill-29"></path>
                <path d="M48.4629,28.6899 C49.6479,28.6899 49.6479,26.8529 48.4629,26.8529 C47.2779,26.8529 47.2779,28.6899 48.4629,28.6899" id="Fill-31"></path>
                <path d="M48.4629,3.0528 C49.2029,3.0528 49.2029,1.9048 48.4629,1.9048 C47.7229,1.9048 47.7229,3.0528 48.4629,3.0528" id="Fill-33"></path>
                <path d="M58.9395,28.8047 C60.2725,28.8047 60.2725,26.7387 58.9395,26.7387 C57.6065,26.7387 57.6065,28.8047 58.9395,28.8047" id="Fill-35"></path>
                <path d="M41.0548,21.1671 C42.0908,21.1671 42.0908,19.5601 41.0548,19.5601 C40.0188,19.5601 40.0188,21.1671 41.0548,21.1671" id="Fill-37"></path>
                <path d="M40.0129,15.814 C40.9009,15.814 40.9009,14.436 40.0129,14.436 C39.1249,14.436 39.1249,15.814 40.0129,15.814" id="Fill-39"></path>
                <path d="M53.7012,1.896 C54.2932,1.896 54.2932,0.978 53.7012,0.978 C53.1092,0.978 53.1092,1.896 53.7012,1.896" id="Fill-41"></path>
                <path d="M53.7012,29.7319 C54.8862,29.7319 54.8862,27.8949 53.7012,27.8949 C52.5162,27.8949 52.5162,29.7319 53.7012,29.7319" id="Fill-43"></path>
                <path d="M44.0221,6.0201 C44.7621,6.0201 44.7621,4.8721 44.0221,4.8721 C43.2821,4.8721 43.2821,6.0201 44.0221,6.0201" id="Fill-45"></path>
                <path d="M63.3803,25.8375 C64.7133,25.8375 64.7133,23.7715 63.3803,23.7715 C62.0473,23.7715 62.0473,25.8375 63.3803,25.8375" id="Fill-47"></path>
                <path d="M63.3803,5.7905 C63.8243,5.7905 63.8243,5.1015 63.3803,5.1015 C62.9363,5.1015 62.9363,5.7905 63.3803,5.7905" id="Fill-49"></path>
                <path d="M44.0221,25.6079 C45.0581,25.6079 45.0581,24.0009 44.0221,24.0009 C42.9861,24.0009 42.9861,25.6079 44.0221,25.6079" id="Fill-51"></path>
                <path d="M114.5695,25.3225 C115.4575,25.3225 115.4575,23.9445 114.5695,23.9445 C113.6815,23.9445 113.6815,25.3225 114.5695,25.3225" id="Fill-53"></path>
                <path d="M122.4467,5.8462 C122.7427,5.8462 122.7427,5.3872 122.4467,5.3872 C122.1507,5.3872 122.1507,5.8462 122.4467,5.8462" id="Fill-55"></path>
                <path d="M108.9995,11.6458 C109.5915,11.6458 109.5915,10.7278 108.9995,10.7278 C108.4075,10.7278 108.4075,11.6458 108.9995,11.6458" id="Fill-57"></path>
                <path d="M128.0166,19.9821 C129.2016,19.9821 129.2016,18.1451 128.0166,18.1451 C126.8316,18.1451 126.8316,19.9821 128.0166,19.9821" id="Fill-59"></path>
                <path d="M108.9995,19.6377 C109.7395,19.6377 109.7395,18.4897 108.9995,18.4897 C108.2595,18.4897 108.2595,19.6377 108.9995,19.6377" id="Fill-61"></path>
                <path d="M128.0166,12.2198 C129.3496,12.2198 129.3496,10.1538 128.0166,10.1538 C126.6836,10.1538 126.6836,12.2198 128.0166,12.2198" id="Fill-63"></path>
                <path d="M114.5695,5.961 C115.0135,5.961 115.0135,5.272 114.5695,5.272 C114.1255,5.272 114.1255,5.961 114.5695,5.961" id="Fill-65"></path>
                <path d="M122.4467,25.4373 C123.4827,25.4373 123.4827,23.8303 122.4467,23.8303 C121.4107,23.8303 121.4107,25.4373 122.4467,25.4373" id="Fill-67"></path>
                <path d="M118.5081,26.106 C119.3961,26.106 119.3961,24.728 118.5081,24.728 C117.6201,24.728 117.6201,26.106 118.5081,26.106" id="Fill-69"></path>
                <path d="M118.5081,5.0628 C118.8041,5.0628 118.8041,4.6038 118.5081,4.6038 C118.2121,4.6038 118.2121,5.0628 118.5081,5.0628" id="Fill-71"></path>
                <path d="M108.2161,15.5844 C108.8081,15.5844 108.8081,14.6664 108.2161,14.6664 C107.6241,14.6664 107.6241,15.5844 108.2161,15.5844" id="Fill-73"></path>
                <path d="M128.8001,16.0436 C129.9851,16.0436 129.9851,14.2066 128.8001,14.2066 C127.6151,14.2066 127.6151,16.0436 128.8001,16.0436" id="Fill-75"></path>
                <path d="M111.2306,22.9767 C111.9706,22.9767 111.9706,21.8287 111.2306,21.8287 C110.4906,21.8287 110.4906,22.9767 111.2306,22.9767" id="Fill-77"></path>
                <path d="M125.7856,8.8808 C127.1186,8.8808 127.1186,6.8148 125.7856,6.8148 C124.4526,6.8148 124.4526,8.8808 125.7856,8.8808" id="Fill-79"></path>
                <path d="M111.2306,8.192 C111.6746,8.192 111.6746,7.503 111.2306,7.503 C110.7866,7.503 110.7866,8.192 111.2306,8.192" id="Fill-81"></path>
                <path d="M125.7856,23.2063 C126.8216,23.2063 126.8216,21.5993 125.7856,21.5993 C124.7496,21.5993 124.7496,23.2063 125.7856,23.2063" id="Fill-83"></path>
                <path d="M113.2698,28.4603 C114.1578,28.4603 114.1578,27.0823 113.2698,27.0823 C112.3818,27.0823 112.3818,28.4603 113.2698,28.4603" id="Fill-85"></path>
                <path d="M123.7464,2.7084 C124.0424,2.7084 124.0424,2.2494 123.7464,2.2494 C123.4504,2.2494 123.4504,2.7084 123.7464,2.7084" id="Fill-87"></path>
                <path d="M105.8617,10.3461 C106.4537,10.3461 106.4537,9.4281 105.8617,9.4281 C105.2697,9.4281 105.2697,10.3461 105.8617,10.3461" id="Fill-89"></path>
                <path d="M131.1545,21.2819 C132.3395,21.2819 132.3395,19.4449 131.1545,19.4449 C129.9695,19.4449 129.9695,21.2819 131.1545,21.2819" id="Fill-91"></path>
                <path d="M105.8617,20.9375 C106.6017,20.9375 106.6017,19.7895 105.8617,19.7895 C105.1217,19.7895 105.1217,20.9375 105.8617,20.9375" id="Fill-93"></path>
                <path d="M131.1545,10.9201 C132.4875,10.9201 132.4875,8.8541 131.1545,8.8541 C129.8215,8.8541 129.8215,10.9201 131.1545,10.9201" id="Fill-95"></path>
                <path d="M113.2698,2.8232 C113.7138,2.8232 113.7138,2.1342 113.2698,2.1342 C112.8258,2.1342 112.8258,2.8232 113.2698,2.8232" id="Fill-97"></path>
                <path d="M123.7464,28.5751 C124.7824,28.5751 124.7824,26.9681 123.7464,26.9681 C122.7104,26.9681 122.7104,28.5751 123.7464,28.5751" id="Fill-99"></path>
                <path d="M118.5081,29.5023 C119.3961,29.5023 119.3961,28.1243 118.5081,28.1243 C117.6201,28.1243 117.6201,29.5023 118.5081,29.5023" id="Fill-101"></path>
                <path d="M118.5081,1.6664 C118.8041,1.6664 118.8041,1.2074 118.5081,1.2074 C118.2121,1.2074 118.2121,1.6664 118.5081,1.6664" id="Fill-103"></path>
                <path d="M104.8198,15.5844 C105.4118,15.5844 105.4118,14.6664 104.8198,14.6664 C104.2278,14.6664 104.2278,15.5844 104.8198,15.5844" id="Fill-105"></path>
                <path d="M132.1964,16.0436 C133.3814,16.0436 133.3814,14.2066 132.1964,14.2066 C131.0114,14.2066 131.0114,16.0436 132.1964,16.0436" id="Fill-107"></path>
                <path d="M108.829,25.3783 C109.569,25.3783 109.569,24.2303 108.829,24.2303 C108.089,24.2303 108.089,25.3783 108.829,25.3783" id="Fill-109"></path>
                <path d="M128.1872,6.4793 C129.5202,6.4793 129.5202,4.4133 128.1872,4.4133 C126.8542,4.4133 126.8542,6.4793 128.1872,6.4793" id="Fill-111"></path>
                <path d="M108.829,5.7905 C109.273,5.7905 109.273,5.1015 108.829,5.1015 C108.385,5.1015 108.385,5.7905 108.829,5.7905" id="Fill-113"></path>
                <path d="M128.1872,25.6079 C129.2232,25.6079 129.2232,24.0009 128.1872,24.0009 C127.1512,24.0009 127.1512,25.6079 128.1872,25.6079" id="Fill-115"></path>
                <path d="M197.4569,25.3225 C198.3449,25.3225 198.3449,23.9445 197.4569,23.9445 C196.5689,23.9445 196.5689,25.3225 197.4569,25.3225" id="Fill-117"></path>
                <path d="M184.0097,19.523 C184.6017,19.523 184.6017,18.605 184.0097,18.605 C183.4177,18.605 183.4177,19.523 184.0097,19.523" id="Fill-119"></path>
                <path d="M189.5797,25.2077 C190.3197,25.2077 190.3197,24.0597 189.5797,24.0597 C188.8397,24.0597 188.8397,25.2077 189.5797,25.2077" id="Fill-121"></path>
                <path d="M203.0269,19.8673 C204.0629,19.8673 204.0629,18.2603 203.0269,18.2603 C201.9909,18.2603 201.9909,19.8673 203.0269,19.8673" id="Fill-123"></path>
                <path d="M200.7959,23.0915 C201.6839,23.0915 201.6839,21.7135 200.7959,21.7135 C199.9079,21.7135 199.9079,23.0915 200.7959,23.0915" id="Fill-125"></path>
                <path d="M186.2408,22.8619 C186.8328,22.8619 186.8328,21.9439 186.2408,21.9439 C185.6488,21.9439 185.6488,22.8619 186.2408,22.8619" id="Fill-127"></path>
                <path d="M193.5183,25.9911 C194.2583,25.9911 194.2583,24.8431 193.5183,24.8431 C192.7783,24.8431 192.7783,25.9911 193.5183,25.9911" id="Fill-129"></path>
                <path d="M183.2263,15.4695 C183.6703,15.4695 183.6703,14.7805 183.2263,14.7805 C182.7823,14.7805 182.7823,15.4695 183.2263,15.4695" id="Fill-131"></path>
                <path d="M203.8103,15.9288 C204.8463,15.9288 204.8463,14.3218 203.8103,14.3218 C202.7743,14.3218 202.7743,15.9288 203.8103,15.9288" id="Fill-133"></path>
                <path d="M198.7566,28.4603 C199.6446,28.4603 199.6446,27.0823 198.7566,27.0823 C197.8686,27.0823 197.8686,28.4603 198.7566,28.4603" id="Fill-135"></path>
                <path d="M180.872,20.8227 C181.464,20.8227 181.464,19.9047 180.872,19.9047 C180.28,19.9047 180.28,20.8227 180.872,20.8227" id="Fill-137"></path>
                <path d="M188.28,28.3456 C189.02,28.3456 189.02,27.1976 188.28,27.1976 C187.54,27.1976 187.54,28.3456 188.28,28.3456" id="Fill-139"></path>
                <path d="M206.1647,21.167 C207.2007,21.167 207.2007,19.56 206.1647,19.56 C205.1287,19.56 205.1287,21.167 206.1647,21.167" id="Fill-141"></path>
                <path d="M203.1974,25.4931 C204.0854,25.4931 204.0854,24.1151 203.1974,24.1151 C202.3094,24.1151 202.3094,25.4931 203.1974,25.4931" id="Fill-143"></path>
                <path d="M183.8393,25.2635 C184.4313,25.2635 184.4313,24.3455 183.8393,24.3455 C183.2473,24.3455 183.2473,25.2635 183.8393,25.2635" id="Fill-145"></path>
                <path d="M193.5184,29.3875 C194.2584,29.3875 194.2584,28.2395 193.5184,28.2395 C192.7784,28.2395 192.7784,29.3875 193.5184,29.3875" id="Fill-147"></path>
                <path d="M179.83,15.7821 C180.274,15.7821 180.274,15.0931 179.83,15.0931 C179.386,15.0931 179.386,15.7821 179.83,15.7821" id="Fill-149"></path>
                <path d="M207.2067,16.2413 C208.2427,16.2413 208.2427,14.6343 207.2067,14.6343 C206.1707,14.6343 206.1707,16.2413 207.2067,16.2413" id="Fill-151"></path>
                <path d="M183.2263,11.2055 C183.6703,11.2055 183.6703,10.5165 183.2263,10.5165 C182.7823,10.5165 182.7823,11.2055 183.2263,11.2055" id="Fill-153"></path>
                <path d="M203.8103,11.7795 C204.9953,11.7795 204.9953,9.9425 203.8103,9.9425 C202.6253,9.9425 202.6253,11.7795 203.8103,11.7795" id="Fill-155"></path>
                <path d="M179.83,11.2055 C180.274,11.2055 180.274,10.5165 179.83,10.5165 C179.386,10.5165 179.386,11.2055 179.83,11.2055" id="Fill-157"></path>
                <path d="M207.2067,11.7795 C208.3917,11.7795 208.3917,9.9425 207.2067,9.9425 C206.0217,9.9425 206.0217,11.7795 207.2067,11.7795" id="Fill-159"></path>
                <path d="M183.2263,6.7782 C183.5223,6.7782 183.5223,6.3192 183.2263,6.3192 C182.9303,6.3192 182.9303,6.7782 183.2263,6.7782" id="Fill-161"></path>
                <path d="M203.8103,7.467 C204.9953,7.467 204.9953,5.63 203.8103,5.63 C202.6253,5.63 202.6253,7.467 203.8103,7.467" id="Fill-163"></path>
                <path d="M179.83,6.7782 C180.126,6.7782 180.126,6.3192 179.83,6.3192 C179.534,6.3192 179.534,6.7782 179.83,6.7782" id="Fill-165"></path>
                <path d="M207.2067,7.467 C208.3917,7.467 208.3917,5.63 207.2067,5.63 C206.0217,5.63 206.0217,7.467 207.2067,7.467" id="Fill-167"></path>
                <path d="M183.2263,2.9236 C183.5223,2.9236 183.5223,2.4646 183.2263,2.4646 C182.9303,2.4646 182.9303,2.9236 183.2263,2.9236" id="Fill-169"></path>
                <path d="M203.8103,3.7273 C205.1433,3.7273 205.1433,1.6613 203.8103,1.6613 C202.4773,1.6613 202.4773,3.7273 203.8103,3.7273" id="Fill-171"></path>
                <path d="M179.83,2.9237 C180.126,2.9237 180.126,2.4647 179.83,2.4647 C179.534,2.4647 179.534,2.9237 179.83,2.9237" id="Fill-173"></path>
                <path d="M207.2067,3.7273 C208.5397,3.7273 208.5397,1.6613 207.2067,1.6613 C205.8737,1.6613 205.8737,3.7273 207.2067,3.7273" id="Fill-175"></path>
                <path d="M229.2495,5.3363 C229.8415,5.3363 229.8415,4.4183 229.2495,4.4183 C228.6575,4.4183 228.6575,5.3363 229.2495,5.3363" id="Fill-177"></path>
                <path d="M233.5831,13.9681 C234.4711,13.9681 234.4711,12.5901 233.5831,12.5901 C232.6951,12.5901 232.6951,13.9681 233.5831,13.9681" id="Fill-179"></path>
                <path d="M224.8158,9.3435 C225.5558,9.3435 225.5558,8.1955 224.8158,8.1955 C224.0758,8.1955 224.0758,9.3435 224.8158,9.3435" id="Fill-181"></path>
                <path d="M228.6188,1.4924 C229.2108,1.4924 229.2108,0.5744 228.6188,0.5744 C228.0268,0.5744 228.0268,1.4924 228.6188,1.4924" id="Fill-183"></path>
                <path d="M233.252,5.2215 C233.696,5.2215 233.696,4.5325 233.252,4.5325 C232.808,4.5325 232.808,5.2215 233.252,5.2215" id="Fill-185"></path>
                <path d="M233.3414,1.3776 C233.7854,1.3776 233.7854,0.6886 233.3414,0.6886 C232.8974,0.6886 232.8974,1.3776 233.3414,1.3776" id="Fill-187"></path>
                <path d="M236.1812,6.8647 C236.6252,6.8647 236.6252,6.1757 236.1812,6.1757 C235.7372,6.1757 235.7372,6.8647 236.1812,6.8647" id="Fill-189"></path>
                <path d="M238.4173,3.7369 C238.8613,3.7369 238.8613,3.0479 238.4173,3.0479 C237.9733,3.0479 237.9733,3.7369 238.4173,3.7369" id="Fill-191"></path>
                <path d="M232.5086,17.6598 C233.3966,17.6598 233.3966,16.2818 232.5086,16.2818 C231.6206,16.2818 231.6206,17.6598 232.5086,17.6598" id="Fill-193"></path>
                <path d="M225.8437,12.3665 C226.5837,12.3665 226.5837,11.2185 225.8437,11.2185 C225.1037,11.2185 225.1037,12.3665 225.8437,12.3665" id="Fill-195"></path>
                <path d="M223.0625,15.0214 C223.8025,15.0214 223.8025,13.8734 223.0625,13.8734 C222.3225,13.8734 222.3225,15.0214 223.0625,15.0214" id="Fill-197"></path>
                <path d="M226.2264,6.3642 C226.8184,6.3642 226.8184,5.4462 226.2264,5.4462 C225.6344,5.4462 225.6344,6.3642 226.2264,6.3642" id="Fill-199"></path>
                <path d="M223.5716,3.583 C224.1636,3.583 224.1636,2.665 223.5716,2.665 C222.9796,2.665 222.9796,3.583 223.5716,3.583" id="Fill-201"></path>
                <path d="M220.9719,9.2541 C221.7119,9.2541 221.7119,8.1061 220.9719,8.1061 C220.2319,8.1061 220.2319,9.2541 220.9719,9.2541" id="Fill-203"></path>
                <path d="M232.08,26.2917 C233.265,26.2917 233.265,24.4547 232.08,24.4547 C230.895,24.4547 230.895,26.2917 232.08,26.2917" id="Fill-205"></path>
                <path d="M227.6299,17.4626 C228.5179,17.4626 228.5179,16.0846 227.6299,16.0846 C226.7419,16.0846 226.7419,17.4626 227.6299,17.4626" id="Fill-207"></path>
                <path d="M236.5138,22.2845 C237.5498,22.2845 237.5498,20.6775 236.5138,20.6775 C235.4778,20.6775 235.4778,22.2845 236.5138,22.2845" id="Fill-209"></path>
                <path d="M232.7107,30.1356 C233.8957,30.1356 233.8957,28.2986 232.7107,28.2986 C231.5257,28.2986 231.5257,30.1356 232.7107,30.1356" id="Fill-211"></path>
                <path d="M228.0775,26.4065 C229.4105,26.4065 229.4105,24.3405 228.0775,24.3405 C226.7445,24.3405 226.7445,26.4065 228.0775,26.4065" id="Fill-213"></path>
                <path d="M227.6703,30.2504 C229.0033,30.2504 229.0033,28.1844 227.6703,28.1844 C226.3373,28.1844 226.3373,30.2504 227.6703,30.2504" id="Fill-215"></path>
                <path d="M225.1738,24.7817 C226.5068,24.7817 226.5068,22.7157 225.1738,22.7157 C223.8408,22.7157 223.8408,24.7817 225.1738,24.7817" id="Fill-217"></path>
                <path d="M222.8869,27.8727 C224.2199,27.8727 224.2199,25.8067 222.8869,25.8067 C221.5539,25.8067 221.5539,27.8727 222.8869,27.8727" id="Fill-219"></path>
                <path d="M229.6078,14.1654 C230.4958,14.1654 230.4958,12.7874 229.6078,12.7874 C228.7198,12.7874 228.7198,14.1654 229.6078,14.1654" id="Fill-221"></path>
                <path d="M235.4859,19.2614 C236.5219,19.2614 236.5219,17.6544 235.4859,17.6544 C234.4499,17.6544 234.4499,19.2614 235.4859,19.2614" id="Fill-223"></path>
                <path d="M238.2671,16.6066 C239.3031,16.6066 239.3031,14.9996 238.2671,14.9996 C237.2311,14.9996 237.2311,16.6066 238.2671,16.6066" id="Fill-225"></path>
                <path d="M235.1031,25.2638 C236.2881,25.2638 236.2881,23.4268 235.1031,23.4268 C233.9181,23.4268 233.9181,25.2638 235.1031,25.2638" id="Fill-227"></path>
                <path d="M237.7579,28.045 C238.9429,28.045 238.9429,26.208 237.7579,26.208 C236.5729,26.208 236.5729,28.045 237.7579,28.045" id="Fill-229"></path>
                <path d="M240.3577,22.3738 C241.3937,22.3738 241.3937,20.7668 240.3577,20.7668 C239.3217,20.7668 239.3217,22.3738 240.3577,22.3738" id="Fill-231"></path>
                <path d="M263.3983,25.8325 C263.9903,25.8325 263.9903,24.9145 263.3983,24.9145 C262.8063,24.9145 262.8063,25.8325 263.3983,25.8325" id="Fill-233"></path>
                <path d="M259.0647,17.6598 C259.9527,17.6598 259.9527,16.2818 259.0647,16.2818 C258.1767,16.2818 258.1767,17.6598 259.0647,17.6598" id="Fill-235"></path>
                <path d="M267.8321,22.0549 C268.5721,22.0549 268.5721,20.9069 267.8321,20.9069 C267.0921,20.9069 267.0921,22.0549 267.8321,22.0549" id="Fill-237"></path>
                <path d="M264.029,29.6764 C264.621,29.6764 264.621,28.7584 264.029,28.7584 C263.437,28.7584 263.437,29.6764 264.029,29.6764" id="Fill-239"></path>
                <path d="M259.3958,25.7177 C259.8398,25.7177 259.8398,25.0287 259.3958,25.0287 C258.9518,25.0287 258.9518,25.7177 259.3958,25.7177" id="Fill-241"></path>
                <path d="M259.3065,29.5616 C259.7505,29.5616 259.7505,28.8726 259.3065,28.8726 C258.8625,28.8726 258.8625,29.5616 259.3065,29.5616" id="Fill-243"></path>
                <path d="M256.4667,24.0745 C256.9107,24.0745 256.9107,23.3855 256.4667,23.3855 C256.0227,23.3855 256.0227,24.0745 256.4667,24.0745" id="Fill-245"></path>
                <path d="M254.2306,27.2023 C254.6746,27.2023 254.6746,26.5133 254.2306,26.5133 C253.7866,26.5133 253.7866,27.2023 254.2306,27.2023" id="Fill-247"></path>
                <path d="M260.1392,13.9681 C261.0272,13.9681 261.0272,12.5901 260.1392,12.5901 C259.2512,12.5901 259.2512,13.9681 260.1392,13.9681" id="Fill-249"></path>
                <path d="M266.8041,19.0318 C267.5441,19.0318 267.5441,17.8838 266.8041,17.8838 C266.0641,17.8838 266.0641,19.0318 266.8041,19.0318" id="Fill-251"></path>
                <path d="M269.5853,16.377 C270.3253,16.377 270.3253,15.229 269.5853,15.229 C268.8453,15.229 268.8453,16.377 269.5853,16.377" id="Fill-253"></path>
                <path d="M266.4214,24.8046 C267.0134,24.8046 267.0134,23.8866 266.4214,23.8866 C265.8294,23.8866 265.8294,24.8046 266.4214,24.8046" id="Fill-255"></path>
                <path d="M269.0762,27.5858 C269.6682,27.5858 269.6682,26.6678 269.0762,26.6678 C268.4842,26.6678 268.4842,27.5858 269.0762,27.5858" id="Fill-257"></path>
                <path d="M271.676,22.1442 C272.416,22.1442 272.416,20.9962 271.676,20.9962 C270.936,20.9962 270.936,22.1442 271.676,22.1442" id="Fill-259"></path>
                <path d="M260.5678,5.7955 C261.7528,5.7955 261.7528,3.9585 260.5678,3.9585 C259.3828,3.9585 259.3828,5.7955 260.5678,5.7955" id="Fill-261"></path>
                <path d="M265.018,14.1654 C265.906,14.1654 265.906,12.7874 265.018,12.7874 C264.13,12.7874 264.13,14.1654 265.018,14.1654" id="Fill-263"></path>
                <path d="M256.134,9.5731 C257.17,9.5731 257.17,7.9661 256.134,7.9661 C255.098,7.9661 255.098,9.5731 256.134,9.5731" id="Fill-265"></path>
                <path d="M259.9371,1.9516 C261.1221,1.9516 261.1221,0.1146 259.9371,0.1146 C258.7521,0.1146 258.7521,1.9516 259.9371,1.9516" id="Fill-267"></path>
                <path d="M264.5703,5.9103 C265.9033,5.9103 265.9033,3.8443 264.5703,3.8443 C263.2373,3.8443 263.2373,5.9103 264.5703,5.9103" id="Fill-269"></path>
                <path d="M264.9775,2.0664 C266.3105,2.0664 266.3105,0.0004 264.9775,0.0004 C263.6445,0.0004 263.6445,2.0664 264.9775,2.0664" id="Fill-271"></path>
                <path d="M267.4741,7.535 C268.8071,7.535 268.8071,5.469 267.4741,5.469 C266.1411,5.469 266.1411,7.535 267.4741,7.535" id="Fill-273"></path>
                <path d="M269.7609,4.4441 C271.0939,4.4441 271.0939,2.3781 269.7609,2.3781 C268.4279,2.3781 268.4279,4.4441 269.7609,4.4441" id="Fill-275"></path>
                <path d="M263.0401,17.4626 C263.9281,17.4626 263.9281,16.0846 263.0401,16.0846 C262.1521,16.0846 262.1521,17.4626 263.0401,17.4626" id="Fill-277"></path>
                <path d="M257.162,12.5961 C258.198,12.5961 258.198,10.9891 257.162,10.9891 C256.126,10.9891 256.126,12.5961 257.162,12.5961" id="Fill-279"></path>
                <path d="M254.3808,15.251 C255.4168,15.251 255.4168,13.644 254.3808,13.644 C253.3448,13.644 253.3448,15.251 254.3808,15.251" id="Fill-281"></path>
                <path d="M257.5447,6.8234 C258.7297,6.8234 258.7297,4.9864 257.5447,4.9864 C256.3597,4.9864 256.3597,6.8234 257.5447,6.8234" id="Fill-283"></path>
                <path d="M254.8899,4.0422 C256.0749,4.0422 256.0749,2.2052 254.8899,2.2052 C253.7049,2.2052 253.7049,4.0422 254.8899,4.0422" id="Fill-285"></path>
                <path d="M252.2902,9.4837 C253.3262,9.4837 253.3262,7.8767 252.2902,7.8767 C251.2542,7.8767 251.2542,9.4837 252.2902,9.4837" id="Fill-287"></path>
                <path d="M10.1939,25.3225 C11.0819,25.3225 11.0819,23.9445 10.1939,23.9445 C9.3059,23.9445 9.3059,25.3225 10.1939,25.3225" id="Fill-289"></path>
                <path d="M18.0711,5.8462 C18.3671,5.8462 18.3671,5.3872 18.0711,5.3872 C17.7751,5.3872 17.7751,5.8462 18.0711,5.8462" id="Fill-291"></path>
                <path d="M4.6239,11.6458 C5.2159,11.6458 5.2159,10.7278 4.6239,10.7278 C4.0319,10.7278 4.0319,11.6458 4.6239,11.6458" id="Fill-293"></path>
                <path d="M23.641,19.9821 C24.826,19.9821 24.826,18.1451 23.641,18.1451 C22.456,18.1451 22.456,19.9821 23.641,19.9821" id="Fill-295"></path>
                <path d="M4.6239,19.6377 C5.3639,19.6377 5.3639,18.4897 4.6239,18.4897 C3.8839,18.4897 3.8839,19.6377 4.6239,19.6377" id="Fill-297"></path>
                <path d="M23.641,12.2198 C24.974,12.2198 24.974,10.1538 23.641,10.1538 C22.308,10.1538 22.308,12.2198 23.641,12.2198" id="Fill-299"></path>
                <path d="M10.1939,5.961 C10.6379,5.961 10.6379,5.272 10.1939,5.272 C9.7499,5.272 9.7499,5.961 10.1939,5.961" id="Fill-301"></path>
                <path d="M18.0711,25.4373 C19.1071,25.4373 19.1071,23.8303 18.0711,23.8303 C17.0351,23.8303 17.0351,25.4373 18.0711,25.4373" id="Fill-303"></path>
                <path d="M14.1325,26.106 C15.0205,26.106 15.0205,24.728 14.1325,24.728 C13.2445,24.728 13.2445,26.106 14.1325,26.106" id="Fill-305"></path>
                <path d="M14.1325,5.0628 C14.4285,5.0628 14.4285,4.6038 14.1325,4.6038 C13.8365,4.6038 13.8365,5.0628 14.1325,5.0628" id="Fill-307"></path>
                <path d="M3.8405,15.5844 C4.4325,15.5844 4.4325,14.6664 3.8405,14.6664 C3.2485,14.6664 3.2485,15.5844 3.8405,15.5844" id="Fill-309"></path>
                <path d="M24.4245,16.0436 C25.6095,16.0436 25.6095,14.2066 24.4245,14.2066 C23.2395,14.2066 23.2395,16.0436 24.4245,16.0436" id="Fill-311"></path>
                <path d="M6.855,22.9767 C7.595,22.9767 7.595,21.8287 6.855,21.8287 C6.115,21.8287 6.115,22.9767 6.855,22.9767" id="Fill-313"></path>
                <path d="M21.41,8.8808 C22.743,8.8808 22.743,6.8148 21.41,6.8148 C20.077,6.8148 20.077,8.8808 21.41,8.8808" id="Fill-315"></path>
                <path d="M6.855,8.192 C7.299,8.192 7.299,7.503 6.855,7.503 C6.411,7.503 6.411,8.192 6.855,8.192" id="Fill-317"></path>
                <path d="M21.41,23.2063 C22.446,23.2063 22.446,21.5993 21.41,21.5993 C20.374,21.5993 20.374,23.2063 21.41,23.2063" id="Fill-319"></path>
                <path d="M8.8942,28.4603 C9.7822,28.4603 9.7822,27.0823 8.8942,27.0823 C8.0062,27.0823 8.0062,28.4603 8.8942,28.4603" id="Fill-321"></path>
                <path d="M19.3708,2.7084 C19.6668,2.7084 19.6668,2.2494 19.3708,2.2494 C19.0748,2.2494 19.0748,2.7084 19.3708,2.7084" id="Fill-323"></path>
                <path d="M1.4861,10.3461 C2.0781,10.3461 2.0781,9.4281 1.4861,9.4281 C0.8941,9.4281 0.8941,10.3461 1.4861,10.3461" id="Fill-325"></path>
                <path d="M26.7789,21.2819 C27.9639,21.2819 27.9639,19.4449 26.7789,19.4449 C25.5939,19.4449 25.5939,21.2819 26.7789,21.2819" id="Fill-327"></path>
                <path d="M1.4861,20.9375 C2.2261,20.9375 2.2261,19.7895 1.4861,19.7895 C0.7461,19.7895 0.7461,20.9375 1.4861,20.9375" id="Fill-329"></path>
                <path d="M26.7789,10.9201 C28.1119,10.9201 28.1119,8.8541 26.7789,8.8541 C25.4459,8.8541 25.4459,10.9201 26.7789,10.9201" id="Fill-331"></path>
                <path d="M8.8942,2.8232 C9.3382,2.8232 9.3382,2.1342 8.8942,2.1342 C8.4502,2.1342 8.4502,2.8232 8.8942,2.8232" id="Fill-333"></path>
                <path d="M19.3708,28.5751 C20.4068,28.5751 20.4068,26.9681 19.3708,26.9681 C18.3348,26.9681 18.3348,28.5751 19.3708,28.5751" id="Fill-335"></path>
                <path d="M14.1325,29.5023 C15.0205,29.5023 15.0205,28.1243 14.1325,28.1243 C13.2445,28.1243 13.2445,29.5023 14.1325,29.5023" id="Fill-337"></path>
                <path d="M14.1325,1.6664 C14.4285,1.6664 14.4285,1.2074 14.1325,1.2074 C13.8365,1.2074 13.8365,1.6664 14.1325,1.6664" id="Fill-339"></path>
                <path d="M0.4442,15.5844 C1.0362,15.5844 1.0362,14.6664 0.4442,14.6664 C-0.1478,14.6664 -0.1478,15.5844 0.4442,15.5844" id="Fill-341"></path>
                <path d="M27.8208,16.0436 C29.0058,16.0436 29.0058,14.2066 27.8208,14.2066 C26.6358,14.2066 26.6358,16.0436 27.8208,16.0436" id="Fill-343"></path>
                <path d="M4.4534,25.3783 C5.1934,25.3783 5.1934,24.2303 4.4534,24.2303 C3.7134,24.2303 3.7134,25.3783 4.4534,25.3783" id="Fill-345"></path>
                <path d="M23.8116,6.4793 C25.1446,6.4793 25.1446,4.4133 23.8116,4.4133 C22.4786,4.4133 22.4786,6.4793 23.8116,6.4793" id="Fill-347"></path>
                <path d="M4.4534,5.7905 C4.8974,5.7905 4.8974,5.1015 4.4534,5.1015 C4.0094,5.1015 4.0094,5.7905 4.4534,5.7905" id="Fill-349"></path>
                <path d="M23.8116,25.6079 C24.8476,25.6079 24.8476,24.0009 23.8116,24.0009 C22.7756,24.0009 22.7756,25.6079 23.8116,25.6079" id="Fill-351"></path>
                <path d="M82.3729,29.8467 C83.7059,29.8467 83.7059,27.7807 82.3729,27.7807 C81.0399,27.7807 81.0399,29.8467 82.3729,29.8467" id="Fill-353"></path>
                <path d="M85.8055,29.8467 C87.1385,29.8467 87.1385,27.7807 85.8055,27.7807 C84.4725,27.7807 84.4725,29.8467 85.8055,29.8467" id="Fill-355"></path>
                <path d="M82.3729,25.3067 C83.5579,25.3067 83.5579,23.4697 82.3729,23.4697 C81.1879,23.4697 81.1879,25.3067 82.3729,25.3067" id="Fill-357"></path>
                <path d="M85.8055,25.3067 C86.9905,25.3067 86.9905,23.4697 85.8055,23.4697 C84.6205,23.4697 84.6205,25.3067 85.8055,25.3067" id="Fill-359"></path>
                <path d="M82.3729,20.7666 C83.4089,20.7666 83.4089,19.1596 82.3729,19.1596 C81.3369,19.1596 81.3369,20.7666 82.3729,20.7666" id="Fill-361"></path>
                <path d="M85.8055,20.7666 C86.8415,20.7666 86.8415,19.1596 85.8055,19.1596 C84.7695,19.1596 84.7695,20.7666 85.8055,20.7666" id="Fill-363"></path>
                <path d="M82.3729,16.2265 C83.2609,16.2265 83.2609,14.8485 82.3729,14.8485 C81.4849,14.8485 81.4849,16.2265 82.3729,16.2265" id="Fill-365"></path>
                <path d="M85.8055,16.2265 C86.6935,16.2265 86.6935,14.8485 85.8055,14.8485 C84.9175,14.8485 84.9175,16.2265 85.8055,16.2265" id="Fill-367"></path>
                <path d="M82.3729,11.6865 C83.1129,11.6865 83.1129,10.5385 82.3729,10.5385 C81.6329,10.5385 81.6329,11.6865 82.3729,11.6865" id="Fill-369"></path>
                <path d="M85.8055,11.6865 C86.5455,11.6865 86.5455,10.5385 85.8055,10.5385 C85.0655,10.5385 85.0655,11.6865 85.8055,11.6865" id="Fill-371"></path>
                <path d="M95.1145,7.1882 C96.4475,7.1882 96.4475,5.1222 95.1145,5.1222 C93.7815,5.1222 93.7815,7.1882 95.1145,7.1882" id="Fill-373"></path>
                <path d="M95.1145,3.7556 C96.4475,3.7556 96.4475,1.6896 95.1145,1.6896 C93.7815,1.6896 93.7815,3.7556 95.1145,3.7556" id="Fill-375"></path>
                <path d="M90.6892,7.0734 C91.8742,7.0734 91.8742,5.2364 90.6892,5.2364 C89.5042,5.2364 89.5042,7.0734 90.6892,7.0734" id="Fill-377"></path>
                <path d="M90.6892,3.6408 C91.8742,3.6408 91.8742,1.8038 90.6892,1.8038 C89.5042,1.8038 89.5042,3.6408 90.6892,3.6408" id="Fill-379"></path>
                <path d="M86.264,6.9586 C87.3,6.9586 87.3,5.3516 86.264,5.3516 C85.228,5.3516 85.228,6.9586 86.264,6.9586" id="Fill-381"></path>
                <path d="M86.264,3.526 C87.3,3.526 87.3,1.919 86.264,1.919 C85.228,1.919 85.228,3.526 86.264,3.526" id="Fill-383"></path>
                <path d="M81.8387,6.8438 C82.7267,6.8438 82.7267,5.4658 81.8387,5.4658 C80.9507,5.4658 80.9507,6.8438 81.8387,6.8438" id="Fill-385"></path>
                <path d="M146.3708,29.8467 C147.7038,29.8467 147.7038,27.7807 146.3708,27.7807 C145.0378,27.7807 145.0378,29.8467 146.3708,29.8467" id="Fill-387"></path>
                <path d="M149.8034,29.8467 C151.1364,29.8467 151.1364,27.7807 149.8034,27.7807 C148.4704,27.7807 148.4704,29.8467 149.8034,29.8467" id="Fill-389"></path>
                <path d="M146.3708,25.3067 C147.5558,25.3067 147.5558,23.4697 146.3708,23.4697 C145.1858,23.4697 145.1858,25.3067 146.3708,25.3067" id="Fill-391"></path>
                <path d="M149.8034,25.3067 C150.9884,25.3067 150.9884,23.4697 149.8034,23.4697 C148.6184,23.4697 148.6184,25.3067 149.8034,25.3067" id="Fill-393"></path>
                <path d="M146.3708,20.7666 C147.4068,20.7666 147.4068,19.1596 146.3708,19.1596 C145.3348,19.1596 145.3348,20.7666 146.3708,20.7666" id="Fill-395"></path>
                <path d="M149.8034,20.7666 C150.8394,20.7666 150.8394,19.1596 149.8034,19.1596 C148.7674,19.1596 148.7674,20.7666 149.8034,20.7666" id="Fill-397"></path>
                <path d="M146.3708,16.2265 C147.2588,16.2265 147.2588,14.8485 146.3708,14.8485 C145.4828,14.8485 145.4828,16.2265 146.3708,16.2265" id="Fill-399"></path>
                <path d="M149.8034,16.2265 C150.6914,16.2265 150.6914,14.8485 149.8034,14.8485 C148.9154,14.8485 148.9154,16.2265 149.8034,16.2265" id="Fill-401"></path>
                <path d="M146.3708,11.6865 C147.1108,11.6865 147.1108,10.5385 146.3708,10.5385 C145.6308,10.5385 145.6308,11.6865 146.3708,11.6865" id="Fill-403"></path>
                <path d="M149.8034,11.6865 C150.5434,11.6865 150.5434,10.5385 149.8034,10.5385 C149.0634,10.5385 149.0634,11.6865 149.8034,11.6865" id="Fill-405"></path>
                <path d="M146.3708,7.1464 C146.9628,7.1464 146.9628,6.2284 146.3708,6.2284 C145.7788,6.2284 145.7788,7.1464 146.3708,7.1464" id="Fill-407"></path>
                <path d="M149.8034,7.1464 C150.3954,7.1464 150.3954,6.2284 149.8034,6.2284 C149.2114,6.2284 149.2114,7.1464 149.8034,7.1464" id="Fill-409"></path>
                <path d="M81.8387,3.4112 C82.7267,3.4112 82.7267,2.0332 81.8387,2.0332 C80.9507,2.0332 80.9507,3.4112 81.8387,3.4112" id="Fill-411"></path>
                <path d="M77.4135,6.729 C78.1535,6.729 78.1535,5.581 77.4135,5.581 C76.6735,5.581 76.6735,6.729 77.4135,6.729" id="Fill-413"></path>
                <path d="M77.4135,3.2964 C78.1535,3.2964 78.1535,2.1484 77.4135,2.1484 C76.6735,2.1484 76.6735,3.2964 77.4135,3.2964" id="Fill-415"></path>
                <path d="M72.9882,6.6142 C73.5802,6.6142 73.5802,5.6962 72.9882,5.6962 C72.3962,5.6962 72.3962,6.6142 72.9882,6.6142" id="Fill-417"></path>
                <path d="M72.9882,3.1816 C73.5802,3.1816 73.5802,2.2636 72.9882,2.2636 C72.3962,2.2636 72.3962,3.1816 72.9882,3.1816" id="Fill-419"></path>
                <path d="M149.7851,3.0034 C150.2291,3.0034 150.2291,2.3144 149.7851,2.3144 C149.3411,2.3144 149.3411,3.0034 149.7851,3.0034" id="Fill-421"></path>
                <path d="M146.389,2.9665 C146.833,2.9665 146.833,2.2775 146.389,2.2775 C145.945,2.2775 145.945,2.9665 146.389,2.9665" id="Fill-423"></path>
                <path d="M158.512,23.4478 C158.956,23.4478 158.956,22.7588 158.512,22.7588 C158.068,22.7588 158.068,23.4478 158.512,23.4478" id="Fill-425"></path>
                <path d="M158.512,4.1177 C159.845,4.1177 159.845,2.0517 158.512,2.0517 C157.179,2.0517 157.179,4.1177 158.512,4.1177" id="Fill-427"></path>
                <path d="M163.1418,22.2215 C163.7338,22.2215 163.7338,21.3035 163.1418,21.3035 C162.5498,21.3035 162.5498,22.2215 163.1418,22.2215" id="Fill-429"></path>
                <path d="M166.8055,18.6726 C167.5455,18.6726 167.5455,17.5246 166.8055,17.5246 C166.0655,17.5246 166.0655,18.6726 166.8055,18.6726" id="Fill-431"></path>
                <path d="M168.1465,13.7827 C169.0345,13.7827 169.0345,12.4047 168.1465,12.4047 C167.2585,12.4047 167.2585,13.7827 168.1465,13.7827" id="Fill-433"></path>
                <path d="M166.8055,8.8928 C167.8415,8.8928 167.8415,7.2858 166.8055,7.2858 C165.7695,7.2858 165.7695,8.8928 166.8055,8.8928" id="Fill-435"></path>
                <path d="M163.1418,5.3439 C164.3268,5.3439 164.3268,3.5069 163.1418,3.5069 C161.9568,3.5069 161.9568,5.3439 163.1418,5.3439" id="Fill-437"></path>
                <path d="M158.137,19.9643 C158.581,19.9643 158.581,19.2753 158.137,19.2753 C157.693,19.2753 157.693,19.9643 158.137,19.9643" id="Fill-439"></path>
                <path d="M158.137,7.6011 C159.47,7.6011 159.47,5.5351 158.137,5.5351 C156.804,5.5351 156.804,7.6011 158.137,7.6011" id="Fill-441"></path>
                <path d="M154.1345,23.4478 C154.5785,23.4478 154.5785,22.7588 154.1345,22.7588 C153.6905,22.7588 153.6905,23.4478 154.1345,23.4478" id="Fill-443"></path>
                <path d="M154.1345,4.1177 C155.4675,4.1177 155.4675,2.0517 154.1345,2.0517 C152.8015,2.0517 152.8015,4.1177 154.1345,4.1177" id="Fill-445"></path>
                <path d="M154.1345,19.9643 C154.5785,19.9643 154.5785,19.2753 154.1345,19.2753 C153.6905,19.2753 153.6905,19.9643 154.1345,19.9643" id="Fill-447"></path>
                <path d="M154.1345,7.6011 C155.4675,7.6011 155.4675,5.5351 154.1345,5.5351 C152.8015,5.5351 152.8015,7.6011 154.1345,7.6011" id="Fill-449"></path>
                <path d="M161.4001,19.2048 C161.9921,19.2048 161.9921,18.2868 161.4001,18.2868 C160.8081,18.2868 160.8081,19.2048 161.4001,19.2048" id="Fill-451"></path>
                <path d="M163.7887,16.9309 C164.5287,16.9309 164.5287,15.7829 163.7887,15.7829 C163.0487,15.7829 163.0487,16.9309 163.7887,16.9309" id="Fill-453"></path>
                <path d="M164.6631,13.7827 C165.5511,13.7827 165.5511,12.4047 164.6631,12.4047 C163.7751,12.4047 163.7751,13.7827 164.6631,13.7827" id="Fill-455"></path>
                <path d="M163.7887,10.6345 C164.8247,10.6345 164.8247,9.0275 163.7887,9.0275 C162.7527,9.0275 162.7527,10.6345 163.7887,10.6345" id="Fill-457"></path>
                <path d="M161.4001,8.3606 C162.5851,8.3606 162.5851,6.5236 161.4001,6.5236 C160.2151,6.5236 160.2151,8.3606 161.4001,8.3606" id="Fill-459"></path>
            </g>
        </g>
    </g>
</svg>