<svg width="21px" height="20px" viewBox="0 0 21 20" version="1.1" xmlns="http://www.w3.org/2000/svg" xmlns:xlink="http://www.w3.org/1999/xlink">
    <!-- Generator: Sketch 42 (36781) - http://www.bohemiancoding.com/sketch -->
    <defs>
        <polygon id="path-1" points="0 0.537162745 0 19.6561431 19.048428 19.6561431 19.048428 0.537162745 1.13841228e-20 0.537162745"></polygon>
    </defs>
    <g id="Welcome" stroke="none" stroke-width="1" fill="none" fill-rule="evenodd">
        <g id="HD-/-Long-Article-Page-/-Share-Mouse-Over" transform="translate(-1385.000000, -738.000000)">
            <g id="Page-1" transform="translate(1385.000000, 704.000000)">
                <g id="Group-6" transform="translate(10.382353, 43.702157) rotate(-90.000000) translate(-10.382353, -43.702157) translate(0.382353, 33.702157)">
                    <mask id="mask-2" fill="white">
                        <use xlink:href="#path-1"></use>
                    </mask>
                    <g id="Clip-5"></g>
                    <path d="M8.500548,16.0028294 L4.367748,16.0028294 L4.367748,13.7373196 L8.031828,13.7373196 C8.906268,13.7373196 10.030188,13.641202 10.030188,12.4380451 C10.030188,11.2180255 9.078468,11.030849 8.094828,11.030849 L4.367748,11.030849 L4.367748,8.83110392 L10.445148,8.83110392 L11.888268,8.83110392 L11.888268,10.9355745 L10.873548,10.9355745 L10.873548,10.9684569 C11.466588,11.2821039 11.888268,12.0476725 11.888268,13.1892804 C11.888268,15.1124765 10.997028,15.766751 9.579108,15.9454961 C9.247308,15.9868098 8.886108,16.0028294 8.500548,16.0028294 Z M13.017228,6.00069216 C13.017228,5.27053529 13.606068,4.67865294 14.332668,4.67865294 C15.060108,4.67865294 15.648948,5.27053529 15.648948,6.00069216 C15.648948,6.73000588 15.060108,7.32188824 14.332668,7.32188824 C13.606068,7.32188824 13.017228,6.73000588 13.017228,6.00069216 L13.017228,6.00069216 Z M10.336788,7.32188824 L4.367748,7.32188824 L4.367748,4.67865294 L9.892428,4.67865294 L11.888268,4.67865294 L11.888268,7.32188824 L10.336788,7.32188824 Z M19.048428,10.0966529 C19.048428,4.81692745 14.784588,0.537162745 9.524508,0.537162745 C4.264428,0.537162745 -0.000252,4.81692745 -0.000252,10.0966529 C-0.000252,15.3763784 4.264428,19.6561431 9.524508,19.6561431 C14.784588,19.6561431 19.048428,15.3763784 19.048428,10.0966529 L19.048428,10.0966529 Z" id="linkedin" fill="#eb5842" mask="url(#mask-2)"></path>
                </g>
            </g>
        </g>
    </g>
</svg>